<svg xmlns="http://www.w3.org/2000/svg" viewBox="0 0 32 32"><title>Artboard-16</title><g id="User_Home" data-name="User Home"><path d="M13,10.5V15h2V13a1,1,0,0,1,2,0v2h2V10.5L16,8.25Z" style="fill:#262628"/><path d="M16,1A12.0137,12.0137,0,0,0,4,13c0,6.4175,10.834,17.2515,11.2954,17.71a1,1,0,0,0,1.4092,0C17.166,30.2515,28,19.4175,28,13A12.0137,12.0137,0,0,0,16,1Zm5,15a1,1,0,0,1-1,1H12a1,1,0,0,1-1-1V10a.9983.9983,0,0,1,.4-.8l4-3a1.0005,1.0005,0,0,1,1.2,0l4,3a.9983.9983,0,0,1,.4.8Z" style="fill:#262628"/></g></svg>